# xmcd
# Track frame offsets:
# 150
# 18280
# 41885
# 60766
# 78901
# 97780
# 121507
# 136564
# 157658
# 171144
#
# Disc length: 2528 seconds
# Revision: 0
# Processed by: cddbd v1.5.1PL0 Copyright (c) Steve Scherf et al.
# Submitted via: VisiTrax 2.9.10.228 - For more info visit www.synapsa.com
#
DISCID=5b09de0a
DTITLE=Marcus Malone - Walkin' Shoes
DYEAR=2002
DGENRE=
TTITLE0=Good Love Gone Bad
TTITLE1=Walkin' Shoes
TTITLE2=Take It To Heart
TTITLE3=Wrong Side Of Love
TTITLE4=Find Somebody
TTITLE5=Day I've Gone
TTITLE6=Blue Jeans
TTITLE7=What About Me
TTITLE8=Tell Me Why
TTITLE9=Dirty Shame
EXTD=
EXTT0=Malone
EXTT1=Malone
EXTT2=Malone
EXTT3=Malone
EXTT4=Malone
EXTT5=Malone/Salkeld
EXTT6=Malone/Salkeld
EXTT7=Malone
EXTT8=Malone
EXTT9=Malone
PLAYORDER=
